<svg width="8" height="9" viewBox="0 0 8 9" fill="none" xmlns="http://www.w3.org/2000/svg">
<path d="M3.56843 0.637551C3.69546 0.20752 4.30454 0.20752 4.43157 0.63755L4.96877 2.45621C5.03781 2.68997 5.25249 2.85041 5.49624 2.85041H7.32877C7.75426 2.85041 7.94209 3.3863 7.60971 3.65194L6.04773 4.90027C5.87306 5.03986 5.80029 5.27129 5.86363 5.48572L6.44054 7.43884C6.56527 7.8611 6.07198 8.19273 5.72804 7.91785L4.34337 6.81123C4.14258 6.65076 3.85742 6.65076 3.65663 6.81123L2.27197 7.91785C1.92802 8.19273 1.43473 7.8611 1.55946 7.43884L2.13637 5.48572C2.19971 5.27129 2.12694 5.03986 1.95227 4.90027L0.390287 3.65194C0.0579083 3.3863 0.245741 2.85041 0.671226 2.85041H2.50376C2.74751 2.85041 2.96219 2.68997 3.03123 2.45621L3.56843 0.637551Z" stroke="#C4C4C4" stroke-width="0.1"/>
</svg>
