<svg width="10" height="10" viewBox="0 0 10 10" fill="none" xmlns="http://www.w3.org/2000/svg">
<g clip-path="url(#clip0_472_32)">
<path d="M7.60253 6.61467C7.27578 6.29216 6.86788 6.29216 6.54321 6.61467C6.29555 6.8602 6.0479 7.10572 5.8044 7.35541C5.7378 7.42408 5.68161 7.43864 5.60045 7.39287C5.4402 7.30547 5.26954 7.23473 5.11553 7.13902C4.39753 6.6875 3.79607 6.10697 3.2633 5.45362C2.99899 5.12903 2.76382 4.78155 2.5994 4.39037C2.56611 4.3113 2.57235 4.25928 2.63687 4.19478C2.88452 3.9555 3.12594 3.70997 3.36944 3.46444C3.70867 3.1232 3.70867 2.7237 3.36735 2.38038C3.17381 2.18479 2.98026 1.99337 2.78671 1.79778C2.58692 1.59803 2.38921 1.3962 2.18733 1.19853C1.86059 0.880174 1.45268 0.880175 1.12802 1.20061C0.87828 1.44613 0.638946 1.6979 0.385044 1.93927C0.149872 2.16191 0.0312454 2.43448 0.00627136 2.75283C-0.0332708 3.27094 0.0936803 3.75991 0.272661 4.2364C0.638946 5.22266 1.1967 6.09865 1.87308 6.90181C2.78671 7.98796 3.87724 8.8473 5.153 9.46736C5.7274 9.74617 6.32261 9.96049 6.96985 9.99586C7.41522 10.0208 7.80232 9.90847 8.11241 9.56099C8.32469 9.32378 8.56403 9.10739 8.78879 8.88059C9.12178 8.54351 9.12386 8.13569 8.79295 7.80277C8.39753 7.40535 8.00003 7.01001 7.60253 6.61467Z" fill="#3257A4"/>
<path d="M7.2052 4.9563L7.97315 4.82521C7.85244 4.11984 7.51946 3.48106 7.01373 2.97336C6.47887 2.43861 5.8025 2.10153 5.05744 1.9975L4.94922 2.76945C5.5257 2.8506 6.05015 3.11069 6.46431 3.52475C6.85557 3.91593 7.11155 4.41115 7.2052 4.9563Z" fill="#3257A4"/>
<path d="M8.40562 1.61881C7.51904 0.732418 6.3973 0.172701 5.159 0L5.05078 0.771952C6.1205 0.921764 7.09032 1.40657 7.85619 2.1702C8.58252 2.89638 9.05911 3.81398 9.23184 4.82314L9.9998 4.69205C9.79792 3.52268 9.24641 2.46151 8.40562 1.61881Z" fill="#3257A4"/>
</g>
<defs>
<clipPath id="clip0_472_32">
<rect width="10" height="10" fill="white"/>
</clipPath>
</defs>
</svg>
