<svg width="145" height="33" viewBox="0 0 145 33" fill="none" xmlns="http://www.w3.org/2000/svg">
<path d="M31.4876 26.3971C30.1132 26.3971 28.9862 26.325 28.1065 26.1664C27.2269 26.0079 26.5535 25.6907 26.0862 25.2149C25.6189 24.7392 25.3027 24.0328 25.1241 23.0957C24.9591 22.1586 24.8629 20.9043 24.8629 19.3473L24.8354 8.11664H27.9966V12.038C28.0928 12.038 28.299 12.038 28.6426 12.0236C28.9862 12.0092 29.3985 11.9948 29.8658 11.9948C30.3331 11.9803 30.8004 11.9659 31.2539 11.9371C31.7075 11.9083 32.1061 11.9082 32.4497 11.9082C34.099 11.9082 35.3772 12.1389 36.298 12.5858C37.2189 13.0472 37.8648 13.7968 38.2359 14.8493C38.607 15.9017 38.8132 17.329 38.8407 19.1311C38.8407 20.8611 38.6757 22.2162 38.3459 23.1966C38.016 24.1769 37.535 24.8978 36.9165 25.3591C36.298 25.8204 35.5283 26.1088 34.6212 26.2241C33.6866 26.3394 32.6558 26.3971 31.4876 26.3971ZM31.5151 24.5229C32.5871 24.5229 33.4255 24.3932 34.0027 24.1481C34.58 23.903 34.9923 23.3696 35.2397 22.5767C35.4734 21.7837 35.5971 20.5871 35.5971 18.9725C35.5696 17.6461 35.4321 16.6225 35.1847 15.8729C34.9373 15.1232 34.525 14.5898 33.9615 14.2726C33.398 13.9554 32.6558 13.7824 31.7075 13.7824C31.4601 13.7824 31.1302 13.7824 30.7454 13.7968C30.3606 13.8113 29.962 13.8257 29.5772 13.8257C29.1923 13.8401 28.8487 13.8545 28.5601 13.8545C28.2715 13.8689 28.0791 13.8689 27.9966 13.8689V19.7077C27.9966 20.7601 28.0378 21.6107 28.1203 22.2307C28.2027 22.8506 28.3539 23.3263 28.5876 23.6579C28.8212 23.9751 29.1648 24.2058 29.6321 24.3211C30.1132 24.4653 30.7454 24.5229 31.5151 24.5229Z" fill="#3257A4"/>
<path d="M48.4754 26.5124C47.3346 26.5124 46.3176 26.4259 45.438 26.2385C44.5583 26.0655 43.8024 25.7195 43.1702 25.2149C42.538 24.7103 42.0707 23.9606 41.7408 22.9803C41.4247 22 41.2598 20.7169 41.2598 19.131C41.2598 17.5452 41.4247 16.2621 41.7408 15.2817C42.0569 14.3014 42.538 13.5517 43.1702 13.0471C43.8024 12.5426 44.5583 12.1966 45.438 12.0236C46.3176 11.8506 47.3346 11.7496 48.4754 11.7496C49.5749 11.7496 50.5645 11.8361 51.4441 12.0236C52.3237 12.1966 53.0797 12.5426 53.6981 13.0471C54.3166 13.5517 54.7977 14.3014 55.1275 15.2817C55.4574 16.2621 55.6223 17.5452 55.6223 19.131C55.6223 20.7457 55.4574 22.0432 55.1275 23.0236C54.7977 24.0039 54.3166 24.7536 53.6981 25.2437C53.0797 25.7339 52.3237 26.0655 51.4441 26.2529C50.5645 26.4259 49.5749 26.5124 48.4754 26.5124ZM48.4754 24.7103C49.3 24.7103 50.001 24.5806 50.592 24.3211C51.1692 24.0616 51.6228 23.5281 51.9114 22.7352C52.2138 21.9423 52.3512 20.7457 52.3512 19.131C52.3512 17.5163 52.2 16.3198 51.9114 15.5268C51.609 14.7339 51.1692 14.2005 50.592 13.941C50.0147 13.6815 49.3 13.5517 48.4754 13.5517C47.6508 13.5517 46.9361 13.6815 46.3451 13.941C45.7541 14.2005 45.3005 14.7339 44.9844 15.5268C44.682 16.3198 44.5171 17.5163 44.5171 19.131C44.5171 20.7457 44.6683 21.9423 44.9844 22.7352C45.2868 23.5281 45.7403 24.0616 46.3451 24.3211C46.9498 24.5806 47.6508 24.7103 48.4754 24.7103Z" fill="#3257A4"/>
<path d="M58.5774 26.2962L58.5361 9.37087C58.5361 8.86629 58.6049 8.52028 58.756 8.34728C58.9072 8.17428 59.2371 8.07336 59.7319 8.07336H61.7935V19.1022L67.6347 12.6867C67.9371 12.3984 68.2395 12.1821 68.5418 12.0524C68.8442 11.9226 69.2977 11.8506 69.8612 11.8506C70.3011 11.8506 70.6996 11.8506 71.057 11.865C71.4281 11.8794 71.7579 11.8938 72.0466 11.9226C71.9778 11.9947 71.8404 12.1101 71.6205 12.2831C71.4006 12.4561 71.1669 12.6435 70.9195 12.8453C70.6721 13.0472 70.4385 13.249 70.2323 13.4364L65.8067 17.8624L71.7854 24.8112C72.0328 25.0996 72.2939 25.3591 72.5413 25.6042C72.7887 25.8493 73.0361 26.0655 73.256 26.2818C72.6788 26.3106 72.1015 26.3106 71.5243 26.3106C70.947 26.3106 70.4248 26.3106 69.9575 26.3106C69.4352 26.3106 69.0366 26.2385 68.7755 26.1088C68.5143 25.979 68.2257 25.7483 67.9371 25.4456L63.5802 20.2988L61.7935 21.8846V26.2818H58.5774V26.2962Z" fill="#3257A4"/>
<path d="M79.6603 26.4404C79.2205 26.4404 78.712 26.4259 78.121 26.4115C77.53 26.3827 76.9253 26.3394 76.3205 26.2529C75.7158 26.1664 75.166 26.0367 74.685 25.8781C74.3826 25.806 74.149 25.7051 73.984 25.5898C73.8191 25.4744 73.6817 25.2582 73.6129 24.9554C73.5305 24.6527 73.4893 24.1913 73.4893 23.5714C74.0665 23.8309 74.6987 24.0472 75.4134 24.2058C76.1281 24.3643 76.8291 24.4653 77.53 24.5085C78.231 24.5518 78.8357 24.5806 79.3305 24.5806C79.949 24.5806 80.5674 24.5518 81.1722 24.5085C81.7769 24.4653 82.3404 24.3499 82.849 24.1913C83.3575 24.0183 83.7698 23.7588 84.0859 23.3984C84.3883 23.038 84.5532 22.5478 84.5532 21.9279C84.5532 21.0917 84.3471 20.5439 83.9347 20.3132C83.5224 20.0681 82.9452 19.9528 82.2167 19.9528H78.6158C77.7224 19.9528 76.8978 19.8951 76.1281 19.7798C75.3585 19.6645 74.74 19.3473 74.2727 18.8427C73.8054 18.3381 73.5717 17.4875 73.5717 16.2909C73.5717 14.9646 73.8741 13.9843 74.4926 13.3355C75.1111 12.6867 75.9907 12.2687 77.1177 12.0812C78.2447 11.8938 79.5779 11.7929 81.1172 11.7929C81.6945 11.7929 82.3542 11.8073 83.1238 11.8217C83.8935 11.8506 84.6082 11.9227 85.2679 12.038C85.8177 12.0812 86.2575 12.1822 86.5873 12.3119C86.9172 12.4417 87.1646 12.6291 87.3295 12.8453C87.4944 13.076 87.5632 13.422 87.5632 13.8689V14.6907C87.357 14.4312 86.9997 14.2293 86.5049 14.0996C85.9963 13.9698 85.4054 13.8689 84.7319 13.7968C84.0584 13.7248 83.3575 13.6815 82.6428 13.6671C81.9281 13.6527 81.2546 13.6527 80.6362 13.6527C79.9765 13.6527 79.3305 13.6959 78.7257 13.7824C78.121 13.8689 77.6262 14.0708 77.2689 14.4168C76.8978 14.7483 76.7191 15.3106 76.7191 16.0747C76.7191 16.6802 76.8291 17.1127 77.0627 17.3722C77.2964 17.6317 77.6125 17.8047 78.0248 17.8768C78.4371 17.9489 78.9044 17.9921 79.4267 17.9921H83.2063C84.1272 17.9921 84.9243 18.0786 85.6115 18.2372C86.2987 18.4102 86.8347 18.7706 87.2196 19.3185C87.6044 19.8663 87.7968 20.7313 87.7968 21.9135C87.7968 23.2542 87.4395 24.249 86.7385 24.8978C86.0238 25.5465 85.0617 25.979 83.8523 26.1809C82.629 26.3394 81.2409 26.4404 79.6603 26.4404Z" fill="#3257A4"/>
<path d="M91.4668 26.2962C90.9445 26.2962 90.5872 26.2097 90.4223 26.0511C90.2573 25.8781 90.1611 25.5177 90.1611 24.9698V12.9318C90.4085 12.8597 90.7384 12.7588 91.137 12.6435C91.5355 12.5282 92.0028 12.3984 92.5389 12.2687C93.0749 12.1389 93.6659 12.038 94.3256 11.9659C94.9716 11.8938 95.6588 11.865 96.3735 11.865C97.1981 11.865 97.9128 11.9371 98.5038 12.0668C99.0948 12.1966 99.6171 12.4417 100.043 12.7877C100.483 13.1337 100.827 13.6383 101.101 14.287L100.552 14.2582C100.73 13.7968 101.005 13.4076 101.376 13.0904C101.747 12.7732 102.16 12.5137 102.627 12.3407C103.094 12.1677 103.589 12.038 104.084 11.9659C104.592 11.8938 105.06 11.865 105.486 11.865C106.86 11.865 107.946 12.0092 108.729 12.2831C109.513 12.557 110.076 13.0183 110.406 13.6671C110.736 14.3158 110.901 15.2097 110.901 16.3342V25.1284C110.901 25.633 110.818 25.9646 110.64 26.1232C110.475 26.2818 110.145 26.3538 109.664 26.3538H107.754C107.754 24.6671 107.754 22.9947 107.754 21.308C107.754 19.6212 107.754 17.9345 107.754 16.2333C107.726 15.1953 107.506 14.5033 107.066 14.1428C106.627 13.7824 105.967 13.6094 105.073 13.6094C104.661 13.6094 104.235 13.6671 103.782 13.7824C103.342 13.8978 102.957 14.0708 102.655 14.287C102.352 14.5033 102.187 14.7483 102.187 15.0367V26.3394H98.9573V15.4548C98.9573 14.8781 98.71 14.4312 98.2014 14.0996C97.6929 13.7824 97.0469 13.6094 96.2498 13.6094C95.7687 13.6094 95.3289 13.6527 94.9166 13.7392C94.5043 13.8257 94.1607 13.941 93.8858 14.0852C93.6109 14.2293 93.446 14.4168 93.4047 14.6618V26.325H91.4668V26.2962Z" fill="#3257A4"/>
<path d="M121.003 26.5125C119.601 26.5125 118.433 26.4115 117.484 26.2241C116.536 26.0367 115.78 25.6763 115.217 25.1429C114.653 24.6094 114.254 23.8886 114.035 22.9515C113.801 22.0144 113.691 20.8034 113.691 19.3185C113.691 17.5452 113.911 16.1035 114.337 14.9934C114.777 13.8834 115.546 13.076 116.66 12.557C117.773 12.038 119.326 11.7785 121.319 11.7785C122.872 11.7785 124.123 11.9803 125.043 12.3696C125.964 12.7588 126.638 13.3788 127.05 14.2294C127.462 15.0655 127.669 16.1324 127.669 17.4299V19.7366H118.02C118.02 19.3473 118.103 19.0446 118.254 18.7995C118.419 18.5544 118.707 18.4391 119.147 18.4391H124.782L124.755 17.502C124.727 16.1612 124.466 15.1664 123.944 14.5465C123.435 13.9266 122.501 13.6094 121.181 13.6094C120.082 13.6094 119.23 13.7824 118.611 14.1429C117.993 14.5033 117.553 15.0799 117.306 15.8873C117.058 16.6946 116.935 17.8047 116.935 19.2176C116.935 20.6881 117.072 21.7982 117.361 22.5478C117.649 23.2975 118.13 23.8165 118.804 24.076C119.477 24.3355 120.426 24.4653 121.635 24.4653C122.075 24.4653 122.583 24.4509 123.161 24.4364C123.738 24.4076 124.343 24.3788 124.947 24.3355C125.552 24.2923 126.102 24.2202 126.583 24.1625C127.064 24.0904 127.38 24.0183 127.545 23.9463V24.4509C127.545 24.7104 127.49 24.9843 127.38 25.2438C127.27 25.5033 127.023 25.7195 126.665 25.8925C126.184 26.1376 125.483 26.2962 124.549 26.3827C123.6 26.4692 122.418 26.5125 121.003 26.5125Z" fill="#3257A4"/>
<path d="M129.827 19.0589C129.827 17.1127 130.074 15.6133 130.583 14.5753C131.091 13.5373 131.82 12.8165 132.782 12.4128C133.744 12.0235 134.898 11.8217 136.245 11.8217C136.657 11.8217 137.139 11.8361 137.675 11.8794C138.211 11.9082 138.747 11.9659 139.269 12.038C139.791 12.11 140.258 12.1821 140.671 12.2686C141.083 12.3551 141.372 12.4416 141.523 12.5425L140.671 12.975V8.10217H143.832L143.804 19.0589C143.804 20.688 143.694 21.9999 143.461 22.9659C143.227 23.9318 142.856 24.667 142.334 25.1428C141.811 25.6186 141.069 25.9501 140.135 26.1087C139.2 26.2817 138.032 26.3538 136.63 26.3538C135.324 26.3538 134.239 26.2673 133.345 26.0799C132.466 25.9069 131.765 25.5609 131.256 25.0563C130.748 24.5517 130.376 23.8165 130.157 22.865C129.937 21.9134 129.827 20.6448 129.827 19.0589ZM136.561 24.5229C137.455 24.5229 138.169 24.4508 138.719 24.321C139.269 24.1913 139.681 23.9462 139.97 23.5858C140.258 23.2254 140.451 22.7208 140.533 22.0576C140.629 21.3944 140.671 20.5439 140.671 19.477L140.643 13.9698C140.41 13.941 140.107 13.9265 139.722 13.8977C139.338 13.8689 138.925 13.8545 138.485 13.84C138.046 13.8256 137.647 13.8256 137.29 13.8256C136.259 13.8256 135.434 13.9698 134.816 14.2437C134.197 14.5176 133.757 15.0366 133.483 15.8151C133.208 16.5792 133.07 17.6893 133.07 19.131C133.07 20.6736 133.18 21.8269 133.4 22.591C133.62 23.3551 133.977 23.8741 134.5 24.1336C134.994 24.3931 135.682 24.5229 136.561 24.5229Z" fill="#3257A4"/>
<path d="M4.88738 7.6524C1.06377 8.3545 -1.0803 12.6853 0.555243 16.4019C0.88785 17.1531 1.2287 17.6202 2.22515 18.6784L3.15287 19.6601L3.27795 19.379C3.38515 19.144 3.55008 18.9451 4.33899 18.1204C5.33131 17.0882 5.46463 16.9801 5.90581 16.908C6.42396 16.8171 6.85553 16.9901 7.30359 17.4645C7.66231 17.8451 7.80799 18.1305 7.83411 18.5097L7.85197 18.7865L8.1461 18.8369C8.55979 18.9047 8.7852 19.0359 9.13017 19.4021C9.47515 19.7683 9.60022 20.0047 9.66482 20.4026L9.70743 20.6881L9.98368 20.7385C10.139 20.7659 10.3465 20.8337 10.4455 20.8884C10.653 21.0009 11.1272 21.468 11.2743 21.7073C11.3952 21.9019 11.512 22.2955 11.512 22.5046C11.512 22.6444 11.5203 22.6545 11.655 22.6545C11.8488 22.6545 12.2377 22.7814 12.3971 22.8938C12.47 22.9443 12.6432 23.1014 12.7902 23.247C13.105 23.5642 13.3207 23.6406 13.619 23.5555C13.8224 23.4964 14.1578 23.1894 14.3131 22.9212C14.4258 22.7309 14.434 22.3921 14.3351 22.1874C14.2966 22.1052 13.2946 21.024 12.1126 19.7798C10.8262 18.4261 9.95894 17.476 9.95482 17.4255C9.93695 17.1358 10.0799 16.9498 10.3177 16.9498C10.4386 16.9498 10.6764 17.1805 12.6569 19.2579C13.865 20.5251 14.9137 21.5848 14.9783 21.6122C15.146 21.6756 15.3714 21.6713 15.539 21.5934C15.7507 21.4983 16.1561 21.0283 16.2166 20.8063C16.3197 20.3896 16.3802 20.4675 13.9681 17.9099C11.8666 15.6825 11.7718 15.5701 11.7718 15.4115C11.7718 15.1895 11.9147 15.0496 12.1429 15.0496C12.3064 15.0453 12.3408 15.077 14.4904 17.3535C16.7513 19.7481 16.7609 19.7567 17.0921 19.7567C17.3464 19.7567 17.8384 19.3487 17.9896 19.0099C18.0927 18.7749 18.0927 18.6077 17.9855 18.3814C17.9291 18.2588 16.9189 17.1689 14.9563 15.1044C12.1951 12.2124 11.9958 12.0178 11.8584 12.0178C11.7209 12.0178 11.5945 12.136 10.1101 13.6887C9.23463 14.6071 8.4361 15.4086 8.34126 15.4677C7.48638 16.0156 6.36074 15.8887 5.66117 15.165C5.2942 14.7801 5.19937 14.251 5.41927 13.8026C5.4715 13.7031 6.43359 12.6435 7.63344 11.3676L9.75828 9.10994L9.60709 8.97874C8.86904 8.32278 7.84235 7.83405 6.81017 7.64808C6.35799 7.56158 5.3533 7.5659 4.88738 7.6524Z" fill="#C41C1B"/>
<path d="M13.7979 7.64805C12.6503 7.85565 11.6579 8.35015 10.8113 9.14595C10.6299 9.31751 9.47812 10.5213 8.24802 11.826L6.02148 14.1933L6.04347 14.3605C6.08608 14.6373 6.46679 14.9083 6.93684 15.0035C7.2131 15.0583 7.59656 14.9992 7.86044 14.8593C7.96765 14.8045 8.6631 14.1169 9.65542 13.0803C11.1576 11.5146 11.291 11.3878 11.5067 11.3142C11.7871 11.2191 12.1156 11.2422 12.3575 11.3733C12.4565 11.4281 13.7553 12.7631 15.5503 14.6503C18.0957 17.3304 18.5877 17.8638 18.6578 18.0454C18.7004 18.168 18.7526 18.2631 18.7705 18.2631C18.8351 18.2631 19.3491 17.6245 19.6034 17.2179C20.0569 16.5115 20.3497 15.7604 20.5132 14.8867C20.6259 14.2899 20.6163 13.1351 20.4954 12.5512C19.9511 9.94464 18.0915 8.06614 15.6327 7.64949C15.1654 7.56588 14.2418 7.56588 13.7979 7.64805Z" fill="#C41C1B"/>
<path d="M6.00043 17.6735C5.7764 17.7283 5.65545 17.8364 4.77033 18.7865C3.83436 19.7913 3.77801 19.8821 3.87284 20.2483C3.93332 20.4833 4.33052 20.9547 4.55043 21.0499C4.7181 21.1263 4.94351 21.1321 5.11118 21.0629C5.25412 21.0081 6.95839 19.2478 7.05322 19.0575C7.16592 18.8311 7.14393 18.5241 6.99687 18.279C6.74261 17.8508 6.33578 17.6014 6.00043 17.6735Z" fill="#C41C1B"/>
<path d="M7.62636 19.6659C7.42295 19.7784 5.78741 21.5084 5.73243 21.6713C5.65409 21.8789 5.67608 22.2047 5.77504 22.3777C5.82314 22.4599 5.95646 22.6271 6.07328 22.7439C6.32755 23.0063 6.55708 23.0827 6.84982 23.0063C7.0175 22.9616 7.14395 22.852 7.81603 22.16C8.23935 21.7203 8.65717 21.2676 8.74788 21.1508C8.94167 20.9014 8.9939 20.6535 8.91556 20.404C8.85096 20.1964 8.43177 19.7207 8.2421 19.6385C8.05381 19.552 7.80779 19.5621 7.62636 19.6659Z" fill="#C41C1B"/>
<path d="M9.55224 21.5444C9.42717 21.5891 9.14679 21.8529 8.49944 22.5262C8.01565 23.0336 7.5937 23.508 7.55934 23.5901C7.40816 23.9563 7.54148 24.3499 7.93043 24.7031C8.21081 24.9568 8.46096 25.0116 8.74134 24.8934C8.93925 24.8069 10.5748 23.1144 10.6957 22.8707C10.7947 22.6675 10.7988 22.4224 10.7081 22.2234C10.605 21.9928 10.1735 21.5848 9.97418 21.5257C9.76802 21.4665 9.7584 21.4665 9.55224 21.5444Z" fill="#C41C1B"/>
<path d="M11.2523 23.5137C11.0283 23.6363 9.45324 25.3202 9.37489 25.5191C9.24158 25.8579 9.31442 26.139 9.63328 26.4966C9.74049 26.6191 9.89717 26.7503 9.97826 26.7907C10.1418 26.8728 10.4139 26.8858 10.5912 26.8137C10.7424 26.7546 12.2955 25.1428 12.4646 24.8761C12.5979 24.6584 12.6281 24.396 12.547 24.1697C12.4866 23.9981 12.077 23.5584 11.9121 23.4864C11.7183 23.3999 11.4324 23.4085 11.2523 23.5137Z" fill="#C41C1B"/>
</svg>
